<svg version="1" xmlns="http://www.w3.org/2000/svg" width="933.333" height="933.333" viewBox="0 0 700.000000 700.000000"><path d="M97.9 1.1C73.3 3.7 50.1 14.8 32.5 32.5 14.3 50.6 3.8 73 1 99.2-.3 111.9-.3 588.1 1 600.8c2.8 26.2 13.3 48.6 31.5 66.7C50.6 685.7 73 696.2 99.2 699c12.7 1.3 488.9 1.3 501.6 0 26.2-2.8 48.6-13.3 66.7-31.5 18.2-18.1 28.7-40.5 31.5-66.7 1.3-12.7 1.3-488.9 0-501.6-2.8-26.2-13.3-48.6-31.5-66.7C649.4 14.3 627 3.8 600.8 1 589.5-.2 109.2-.1 97.9 1.1zM129 97.5V129H66v-4.3c0-2.3.7-7.1 1.6-10.7 6.1-26 31.4-47.5 56.7-47.9l4.7-.1v31.5zm126 0V129h-63V66h63v31.5zm127 0V129h-64V66h64v31.5zm126 0V129h-63V66h63v31.5zm78-29.9c11.3 2.6 20.6 7.9 29.5 16.9 6 5.9 9 9.9 11.7 15.5 4.1 8.2 6.8 18.1 6.8 24.7v4.3h-63V66h4.3c2.3 0 7.1.7 10.7 1.6zM129 223.5V255H66v-63h63v31.5zM508 350v158H192V192h316v158zm126-126.5V255h-63v-63h63v31.5zM129 350v32H66v-64h63v32zm505 0v32h-63v-64h63v32zM129 476.5V508H66v-63h63v31.5zm505 0V508h-63v-63h63v31.5zm-505 126V634h-4.2c-6.7 0-16.6-2.7-24.8-6.8-10.4-5.1-22.1-16.8-27.2-27.2-4.1-8.2-6.8-18.1-6.8-24.8V571h63v31.5zm126 0V634h-63v-63h63v31.5zm127 0V634h-64v-63h64v31.5zm126 0V634h-63v-63h63v31.5zm126-27.3c0 6.7-2.7 16.6-6.8 24.8-5.1 10.4-16.8 22.1-27.2 27.2-8.2 4.1-18.1 6.8-24.7 6.8H571v-63h63v4.2z"/><path d="M255 350v95h190V255H255v95z"/></svg>